<svg xmlns="http://www.w3.org/2000/svg" width="492" height="492" viewBox="0 0 492 492"><rect width="492" height="492" fill="#ffffff"/><g fill="#0a0a0a"><rect x="48" y="48" width="84" height="12"/><rect x="168" y="48" width="12" height="12"/><rect x="192" y="48" width="24" height="12"/><rect x="252" y="48" width="24" height="12"/><rect x="300" y="48" width="12" height="12"/><rect x="324" y="48" width="24" height="12"/><rect x="360" y="48" width="84" height="12"/><rect x="48" y="60" width="12" height="12"/><rect x="120" y="60" width="12" height="12"/><rect x="204" y="60" width="12" height="12"/><rect x="276" y="60" width="24" height="12"/><rect x="324" y="60" width="12" height="12"/><rect x="360" y="60" width="12" height="12"/><rect x="432" y="60" width="12" height="12"/><rect x="48" y="72" width="12" height="12"/><rect x="72" y="72" width="36" height="12"/><rect x="120" y="72" width="12" height="12"/><rect x="168" y="72" width="36" height="12"/><rect x="216" y="72" width="12" height="12"/><rect x="240" y="72" width="24" height="12"/><rect x="276" y="72" width="24" height="12"/><rect x="312" y="72" width="24" height="12"/><rect x="360" y="72" width="12" height="12"/><rect x="384" y="72" width="36" height="12"/><rect x="432" y="72" width="12" height="12"/><rect x="48" y="84" width="12" height="12"/><rect x="72" y="84" width="36" height="12"/><rect x="120" y="84" width="12" height="12"/><rect x="156" y="84" width="12" height="12"/><rect x="204" y="84" width="24" height="12"/><rect x="240" y="84" width="60" height="12"/><rect x="312" y="84" width="36" height="12"/><rect x="360" y="84" width="12" height="12"/><rect x="384" y="84" width="36" height="12"/><rect x="432" y="84" width="12" height="12"/><rect x="48" y="96" width="12" height="12"/><rect x="72" y="96" width="36" height="12"/><rect x="120" y="96" width="12" height="12"/><rect x="144" y="96" width="48" height="12"/><rect x="204" y="96" width="12" height="12"/><rect x="228" y="96" width="12" height="12"/><rect x="252" y="96" width="12" height="12"/><rect x="288" y="96" width="60" height="12"/><rect x="360" y="96" width="12" height="12"/><rect x="384" y="96" width="36" height="12"/><rect x="432" y="96" width="12" height="12"/><rect x="48" y="108" width="12" height="12"/><rect x="120" y="108" width="12" height="12"/><rect x="156" y="108" width="36" height="12"/><rect x="240" y="108" width="24" height="12"/><rect x="300" y="108" width="12" height="12"/><rect x="324" y="108" width="12" height="12"/><rect x="360" y="108" width="12" height="12"/><rect x="432" y="108" width="12" height="12"/><rect x="48" y="120" width="84" height="12"/><rect x="144" y="120" width="12" height="12"/><rect x="168" y="120" width="12" height="12"/><rect x="192" y="120" width="12" height="12"/><rect x="216" y="120" width="12" height="12"/><rect x="240" y="120" width="12" height="12"/><rect x="264" y="120" width="12" height="12"/><rect x="288" y="120" width="12" height="12"/><rect x="312" y="120" width="12" height="12"/><rect x="336" y="120" width="12" height="12"/><rect x="360" y="120" width="84" height="12"/><rect x="144" y="132" width="12" height="12"/><rect x="180" y="132" width="12" height="12"/><rect x="216" y="132" width="12" height="12"/><rect x="240" y="132" width="36" height="12"/><rect x="336" y="132" width="12" height="12"/><rect x="72" y="144" width="24" height="12"/><rect x="120" y="144" width="36" height="12"/><rect x="168" y="144" width="12" height="12"/><rect x="216" y="144" width="12" height="12"/><rect x="252" y="144" width="24" height="12"/><rect x="300" y="144" width="12" height="12"/><rect x="324" y="144" width="12" height="12"/><rect x="348" y="144" width="24" height="12"/><rect x="384" y="144" width="12" height="12"/><rect x="48" y="156" width="12" height="12"/><rect x="72" y="156" width="12" height="12"/><rect x="108" y="156" width="12" height="12"/><rect x="192" y="156" width="12" height="12"/><rect x="216" y="156" width="60" height="12"/><rect x="288" y="156" width="48" height="12"/><rect x="348" y="156" width="24" height="12"/><rect x="408" y="156" width="36" height="12"/><rect x="72" y="168" width="36" height="12"/><rect x="120" y="168" width="36" height="12"/><rect x="168" y="168" width="12" height="12"/><rect x="216" y="168" width="12" height="12"/><rect x="252" y="168" width="24" height="12"/><rect x="324" y="168" width="24" height="12"/><rect x="360" y="168" width="12" height="12"/><rect x="408" y="168" width="36" height="12"/><rect x="84" y="180" width="12" height="12"/><rect x="108" y="180" width="12" height="12"/><rect x="156" y="180" width="24" height="12"/><rect x="192" y="180" width="60" height="12"/><rect x="264" y="180" width="24" height="12"/><rect x="324" y="180" width="24" height="12"/><rect x="360" y="180" width="48" height="12"/><rect x="420" y="180" width="24" height="12"/><rect x="48" y="192" width="24" height="12"/><rect x="96" y="192" width="12" height="12"/><rect x="120" y="192" width="12" height="12"/><rect x="144" y="192" width="48" height="12"/><rect x="204" y="192" width="36" height="12"/><rect x="276" y="192" width="36" height="12"/><rect x="324" y="192" width="12" height="12"/><rect x="348" y="192" width="12" height="12"/><rect x="372" y="192" width="12" height="12"/><rect x="48" y="204" width="12" height="12"/><rect x="72" y="204" width="12" height="12"/><rect x="144" y="204" width="24" height="12"/><rect x="204" y="204" width="24" height="12"/><rect x="240" y="204" width="24" height="12"/><rect x="300" y="204" width="24" height="12"/><rect x="336" y="204" width="24" height="12"/><rect x="396" y="204" width="12" height="12"/><rect x="48" y="216" width="36" height="12"/><rect x="120" y="216" width="12" height="12"/><rect x="192" y="216" width="24" height="12"/><rect x="228" y="216" width="24" height="12"/><rect x="264" y="216" width="48" height="12"/><rect x="336" y="216" width="12" height="12"/><rect x="360" y="216" width="12" height="12"/><rect x="384" y="216" width="36" height="12"/><rect x="48" y="228" width="48" height="12"/><rect x="144" y="228" width="12" height="12"/><rect x="168" y="228" width="36" height="12"/><rect x="228" y="228" width="12" height="12"/><rect x="276" y="228" width="12" height="12"/><rect x="300" y="228" width="36" height="12"/><rect x="348" y="228" width="36" height="12"/><rect x="396" y="228" width="24" height="12"/><rect x="48" y="240" width="24" height="12"/><rect x="108" y="240" width="36" height="12"/><rect x="192" y="240" width="12" height="12"/><rect x="264" y="240" width="48" height="12"/><rect x="336" y="240" width="36" height="12"/><rect x="384" y="240" width="12" height="12"/><rect x="408" y="240" width="24" height="12"/><rect x="48" y="252" width="36" height="12"/><rect x="96" y="252" width="12" height="12"/><rect x="156" y="252" width="36" height="12"/><rect x="204" y="252" width="12" height="12"/><rect x="228" y="252" width="48" height="12"/><rect x="288" y="252" width="12" height="12"/><rect x="312" y="252" width="24" height="12"/><rect x="348" y="252" width="24" height="12"/><rect x="384" y="252" width="12" height="12"/><rect x="408" y="252" width="36" height="12"/><rect x="72" y="264" width="12" height="12"/><rect x="120" y="264" width="36" height="12"/><rect x="168" y="264" width="12" height="12"/><rect x="204" y="264" width="24" height="12"/><rect x="252" y="264" width="12" height="12"/><rect x="276" y="264" width="24" height="12"/><rect x="348" y="264" width="24" height="12"/><rect x="408" y="264" width="24" height="12"/><rect x="48" y="276" width="12" height="12"/><rect x="72" y="276" width="24" height="12"/><rect x="156" y="276" width="12" height="12"/><rect x="216" y="276" width="24" height="12"/><rect x="264" y="276" width="12" height="12"/><rect x="288" y="276" width="12" height="12"/><rect x="312" y="276" width="12" height="12"/><rect x="372" y="276" width="24" height="12"/><rect x="420" y="276" width="24" height="12"/><rect x="84" y="288" width="12" height="12"/><rect x="108" y="288" width="84" height="12"/><rect x="204" y="288" width="48" height="12"/><rect x="264" y="288" width="12" height="12"/><rect x="288" y="288" width="36" height="12"/><rect x="336" y="288" width="12" height="12"/><rect x="360" y="288" width="24" height="12"/><rect x="396" y="288" width="36" height="12"/><rect x="48" y="300" width="36" height="12"/><rect x="96" y="300" width="12" height="12"/><rect x="132" y="300" width="24" height="12"/><rect x="168" y="300" width="12" height="12"/><rect x="216" y="300" width="24" height="12"/><rect x="252" y="300" width="12" height="12"/><rect x="276" y="300" width="12" height="12"/><rect x="300" y="300" width="12" height="12"/><rect x="336" y="300" width="12" height="12"/><rect x="408" y="300" width="12" height="12"/><rect x="432" y="300" width="12" height="12"/><rect x="72" y="312" width="24" height="12"/><rect x="108" y="312" width="84" height="12"/><rect x="228" y="312" width="12" height="12"/><rect x="264" y="312" width="12" height="12"/><rect x="312" y="312" width="36" height="12"/><rect x="360" y="312" width="24" height="12"/><rect x="396" y="312" width="48" height="12"/><rect x="60" y="324" width="12" height="12"/><rect x="96" y="324" width="12" height="12"/><rect x="132" y="324" width="24" height="12"/><rect x="168" y="324" width="12" height="12"/><rect x="216" y="324" width="24" height="12"/><rect x="252" y="324" width="12" height="12"/><rect x="312" y="324" width="12" height="12"/><rect x="348" y="324" width="12" height="12"/><rect x="384" y="324" width="24" height="12"/><rect x="420" y="324" width="24" height="12"/><rect x="48" y="336" width="12" height="12"/><rect x="72" y="336" width="24" height="12"/><rect x="120" y="336" width="12" height="12"/><rect x="204" y="336" width="48" height="12"/><rect x="264" y="336" width="12" height="12"/><rect x="312" y="336" width="12" height="12"/><rect x="336" y="336" width="60" height="12"/><rect x="420" y="336" width="24" height="12"/><rect x="144" y="348" width="24" height="12"/><rect x="240" y="348" width="48" height="12"/><rect x="300" y="348" width="12" height="12"/><rect x="324" y="348" width="24" height="12"/><rect x="384" y="348" width="12" height="12"/><rect x="408" y="348" width="12" height="12"/><rect x="48" y="360" width="84" height="12"/><rect x="144" y="360" width="36" height="12"/><rect x="192" y="360" width="24" height="12"/><rect x="240" y="360" width="24" height="12"/><rect x="288" y="360" width="24" height="12"/><rect x="324" y="360" width="24" height="12"/><rect x="360" y="360" width="12" height="12"/><rect x="384" y="360" width="36" height="12"/><rect x="48" y="372" width="12" height="12"/><rect x="120" y="372" width="12" height="12"/><rect x="180" y="372" width="24" height="12"/><rect x="216" y="372" width="24" height="12"/><rect x="252" y="372" width="12" height="12"/><rect x="288" y="372" width="12" height="12"/><rect x="324" y="372" width="24" height="12"/><rect x="384" y="372" width="60" height="12"/><rect x="48" y="384" width="12" height="12"/><rect x="72" y="384" width="36" height="12"/><rect x="120" y="384" width="12" height="12"/><rect x="180" y="384" width="24" height="12"/><rect x="216" y="384" width="12" height="12"/><rect x="252" y="384" width="48" height="12"/><rect x="312" y="384" width="120" height="12"/><rect x="48" y="396" width="12" height="12"/><rect x="72" y="396" width="36" height="12"/><rect x="120" y="396" width="12" height="12"/><rect x="144" y="396" width="12" height="12"/><rect x="180" y="396" width="24" height="12"/><rect x="216" y="396" width="12" height="12"/><rect x="240" y="396" width="12" height="12"/><rect x="288" y="396" width="60" height="12"/><rect x="372" y="396" width="12" height="12"/><rect x="396" y="396" width="12" height="12"/><rect x="48" y="408" width="12" height="12"/><rect x="72" y="408" width="36" height="12"/><rect x="120" y="408" width="12" height="12"/><rect x="144" y="408" width="60" height="12"/><rect x="276" y="408" width="24" height="12"/><rect x="336" y="408" width="36" height="12"/><rect x="408" y="408" width="12" height="12"/><rect x="48" y="420" width="12" height="12"/><rect x="120" y="420" width="12" height="12"/><rect x="156" y="420" width="24" height="12"/><rect x="192" y="420" width="24" height="12"/><rect x="228" y="420" width="12" height="12"/><rect x="252" y="420" width="12" height="12"/><rect x="276" y="420" width="12" height="12"/><rect x="312" y="420" width="36" height="12"/><rect x="360" y="420" width="12" height="12"/><rect x="396" y="420" width="12" height="12"/><rect x="432" y="420" width="12" height="12"/><rect x="48" y="432" width="84" height="12"/><rect x="216" y="432" width="36" height="12"/><rect x="300" y="432" width="12" height="12"/><rect x="324" y="432" width="12" height="12"/><rect x="360" y="432" width="36" height="12"/></g></svg>